{
  "accessors": [
    {
      "bufferView": 2,
      "componentType": 5126,
      "count": 1471,
      "max": [
        1.7070989608764648,
        2.7446401119232178,
        0.8479229807853699
      ],
      "min": [
        -1.7070989608764648,
        -0.0013299999991431832,
        -0.38075900077819824
      ],
      "type": "VEC3"
    },
    {
      "bufferView": 2,
      "byteOffset": 17652,
      "componentType": 5126,
      "count": 1471,
      "max": [
        0.9993861317634583,
        0.9993340969085693,
        0.9999863505363464
      ],
      "min": [
        -0.9993861317634583,
        -0.9998989105224609,
        -0.9995692372322083
      ],
      "type": "VEC3"
    },
    {
      "bufferView": 1,
      "componentType": 5126,
      "count": 1471,
      "max": [
        1.9782299995422363,
        2.9896159172058105
      ],
      "min": [
        1.0054579973220825,
        2.016422986984253
      ],
      "type": "VEC2"
    },
    {
      "bufferView": 0,
      "componentType": 5125,
      "count": 6960,
      "type": "SCALAR"
    },
    {
      "bufferView": 2,
      "byteOffset": 35304,
      "componentType": 5126,
      "count": 1033,
      "max": [
        0.16454599797725677,
        2.916727066040039,
        0.28329598903656006
      ],
      "min": [
        -0.16454599797725677,
        2.5530850887298584,
        -0.08176399767398834
      ],
      "type": "VEC3"
    },
    {
      "bufferView": 2,
      "byteOffset": 47700,
      "componentType": 5126,
      "count": 1033,
      "max": [
        0.9988321661949158,
        0.9985447525978088,
        1.0
      ],
      "min": [
        -0.9988322257995605,
        -0.9999958872795105,
        -0.9986819624900818
      ],
      "type": "VEC3"
    },
    {
      "bufferView": 1,
      "byteOffset": 11768,
      "componentType": 5126,
      "count": 1033,
      "max": [
        1.4341330528259277,
        3.663022994995117
      ],
      "min": [
        0.005892000161111355,
        2.6358070373535156
      ],
      "type": "VEC2"
    },
    {
      "bufferView": 0,
      "byteOffset": 27840,
      "componentType": 5125,
      "count": 5010,
      "type": "SCALAR"
    }
  ],
  "asset": {
    "extras": {
      "author": "TurkishDude (https://sketchfab.com/TurkishDude)",
      "license": "CC-BY-4.0 (http://creativecommons.org/licenses/by/4.0/)",
      "source": "https://sketchfab.com/3d-models/prototype-hulk-2003-video-game-fa73f3c12a094016ab3acdec8085e7ba",
      "title": "Prototype Hulk - 2003 Video Game"
    },
    "generator": "Sketchfab-16.59.0",
    "version": "2.0"
  },
  "bufferViews": [
    {
      "buffer": 0,
      "byteLength": 47880,
      "name": "floatBufferViews",
      "target": 34963
    },
    {
      "buffer": 0,
      "byteLength": 20032,
      "byteOffset": 47880,
      "byteStride": 8,
      "name": "floatBufferViews",
      "target": 34962
    },
    {
      "buffer": 0,
      "byteLength": 60096,
      "byteOffset": 67912,
      "byteStride": 12,
      "name": "floatBufferViews",
      "target": 34962
    }
  ],
  "buffers": [
    {
      "byteLength": 128008,
      "uri": "scene.bin"
    }
  ],
  "images": [
    {
      "uri": "textures/hulk_lambert_baseColor.png"
    }
  ],
  "materials": [
    {
      "doubleSided": true,
      "name": "hulk_lambert",
      "pbrMetallicRoughness": {
        "baseColorTexture": {
          "index": 0
        },
        "metallicFactor": 0.0
      }
    },
    {
      "doubleSided": true,
      "name": "hulk_lambert.001",
      "pbrMetallicRoughness": {
        "baseColorTexture": {
          "index": 0
        },
        "metallicFactor": 0.0
      }
    }
  ],
  "meshes": [
    {
      "name": "hulk_body_hulk_lambert_0",
      "primitives": [
        {
          "attributes": {
            "NORMAL": 1,
            "POSITION": 0,
            "TEXCOORD_0": 2
          },
          "indices": 3,
          "material": 0,
          "mode": 4
        }
      ]
    },
    {
      "name": "hulk_head_hulk_lambert.001_0",
      "primitives": [
        {
          "attributes": {
            "NORMAL": 5,
            "POSITION": 4,
            "TEXCOORD_0": 6
          },
          "indices": 7,
          "material": 1,
          "mode": 4
        }
      ]
    }
  ],
  "nodes": [
    {
      "children": [
        1
      ],
      "matrix": [
        1.0,
        0.0,
        0.0,
        0.0,
        0.0,
        2.220446049250313e-16,
        -1.0,
        0.0,
        0.0,
        1.0,
        2.220446049250313e-16,
        0.0,
        0.0,
        0.0,
        0.0,
        1.0
      ],
      "name": "Sketchfab_model"
    },
    {
      "children": [
        2
      ],
      "matrix": [
        0.009999999776482582,
        0.0,
        0.0,
        0.0,
        0.0,
        0.0,
        0.009999999776482582,
        0.0,
        0.0,
        -0.009999999776482582,
        0.0,
        0.0,
        0.0,
        0.0,
        0.0,
        1.0
      ],
      "name": "fa59fc7bf6f64ae28327dcc36b6375cf.fbx"
    },
    {
      "children": [
        3,
        5
      ],
      "name": "RootNode"
    },
    {
      "children": [
        4
      ],
      "matrix": [
        100.0,
        0.0,
        0.0,
        0.0,
        0.0,
        99.99999999999972,
        -7.5497901264043296e-06,
        0.0,
        0.0,
        7.5497901264043296e-06,
        99.99999999999972,
        0.0,
        0.0,
        0.0,
        0.0,
        1.0
      ],
      "name": "hulk_body"
    },
    {
      "mesh": 0,
      "name": "hulk_body_hulk_lambert_0"
    },
    {
      "children": [
        6
      ],
      "matrix": [
        100.0,
        0.0,
        0.0,
        0.0,
        0.0,
        99.99999999999972,
        -7.5497901264043296e-06,
        0.0,
        0.0,
        7.5497901264043296e-06,
        99.99999999999972,
        0.0,
        0.0,
        0.0,
        0.0,
        1.0
      ],
      "name": "hulk_head"
    },
    {
      "mesh": 1,
      "name": "hulk_head_hulk_lambert.001_0"
    }
  ],
  "samplers": [
    {
      "magFilter": 9729,
      "minFilter": 9987,
      "wrapS": 10497,
      "wrapT": 10497
    }
  ],
  "scene": 0,
  "scenes": [
    {
      "name": "Sketchfab_Scene",
      "nodes": [
        0
      ]
    }
  ],
  "textures": [
    {
      "sampler": 0,
      "source": 0
    }
  ]
}
